<?xml version="1.0" encoding="iso-8859-1"?>
<!-- Uploaded to: SVG Repo, www.svgrepo.com, Generator: SVG Repo Mixer Tools -->
<svg version="1.1" id="Layer_1" xmlns="http://www.w3.org/2000/svg" xmlns:xlink="http://www.w3.org/1999/xlink" 
	 viewBox="0 0 512 512" xml:space="preserve">
<rect x="200.241" y="380.706" style="fill:#CCCCCC;" width="111.508" height="73.169"/>
<polygon style="fill:#D35B38;" points="64.716,120.144 64.716,88.733 142.319,88.733 142.319,120.144 501.801,120.144 
	501.801,58.122 10.199,58.122 10.199,120.144 "/>
<polygon style="fill:#FFE6B8;" points="501.801,120.144 142.319,120.144 142.319,88.733 64.716,88.733 64.716,120.144 
	10.199,120.144 10.199,246.821 501.801,246.821 "/>
<rect x="10.199" y="246.821" style="fill:#FFAD61;" width="491.602" height="133.885"/>
<rect x="90.773" y="162.453" style="fill:#CCCCCC;" width="330.454" height="44.305"/>
<g>
	<path style="fill:#4D3D36;" d="M0,380.705c0,5.633,4.566,10.199,10.199,10.199h179.845v52.775h-36.179
		c-5.633,0-10.199,4.566-10.199,10.199s4.566,10.199,10.199,10.199h204.27c5.633,0,10.199-4.566,10.199-10.199
		s-4.566-10.199-10.199-10.199h-36.179v-52.775h179.845c5.633,0,10.199-4.566,10.199-10.199V58.122
		c0-5.633-4.566-10.199-10.199-10.199H10.199C4.566,47.923,0,52.489,0,58.122V380.705z M20.398,130.343h44.319
		c5.633,0,10.199-4.566,10.199-10.199V98.932h57.203v21.211c0,5.633,4.566,10.199,10.199,10.199h349.283v106.279H20.398V130.343z
		 M20.398,68.321h471.203v41.623H152.518V88.733c0-5.633-4.566-10.199-10.199-10.199H64.717c-5.633,0-10.199,4.566-10.199,10.199
		v21.211H20.398V68.321z M301.558,443.679h-91.116v-52.775h91.116V443.679z M20.398,370.505V257.02h471.203v113.486L20.398,370.505
		L20.398,370.505z"/>
	<path style="fill:#4D3D36;" d="M467.124,98.932h2.04c5.633,0,10.199-4.566,10.199-10.199s-4.566-10.199-10.199-10.199h-2.04
		c-5.633,0-10.199,4.566-10.199,10.199S461.49,98.932,467.124,98.932z"/>
	<path style="fill:#4D3D36;" d="M430.406,98.932h2.04c5.633,0,10.199-4.566,10.199-10.199s-4.566-10.199-10.199-10.199h-2.04
		c-5.633,0-10.199,4.566-10.199,10.199S424.773,98.932,430.406,98.932z"/>
	<path style="fill:#4D3D36;" d="M393.689,98.932h2.04c5.633,0,10.199-4.566,10.199-10.199s-4.566-10.199-10.199-10.199h-2.04
		c-5.633,0-10.199,4.566-10.199,10.199S388.056,98.932,393.689,98.932z"/>
	<path style="fill:#4D3D36;" d="M441.626,304.956h6.12c5.633,0,10.199-4.566,10.199-10.199s-4.566-10.199-10.199-10.199h-6.12
		c-5.633,0-10.199,4.566-10.199,10.199S435.992,304.956,441.626,304.956z"/>
	<path style="fill:#4D3D36;" d="M64.255,304.956h341.673c5.633,0,10.199-4.566,10.199-10.199s-4.566-10.199-10.199-10.199H64.255
		c-5.633,0-10.199,4.566-10.199,10.199S58.622,304.956,64.255,304.956z"/>
	<path style="fill:#4D3D36;" d="M64.255,344.733h224.382c5.633,0,10.199-4.566,10.199-10.199s-4.566-10.199-10.199-10.199H64.255
		c-5.633,0-10.199,4.566-10.199,10.199S58.622,344.733,64.255,344.733z"/>
	<path style="fill:#4D3D36;" d="M421.227,152.253H90.773c-5.633,0-10.199,4.566-10.199,10.199v44.306
		c0,5.633,4.566,10.199,10.199,10.199h330.454c5.633,0,10.199-4.566,10.199-10.199v-44.306
		C431.426,156.819,426.86,152.253,421.227,152.253z M411.028,196.56H100.972v-23.908h310.056V196.56z"/>
</g>
</svg>