<?xml version="1.0" encoding="iso-8859-1"?>
<!-- Uploaded to: SVG Repo, www.svgrepo.com, Generator: SVG Repo Mixer Tools -->
<svg height="800px" width="800px" version="1.1" id="Layer_1" xmlns="http://www.w3.org/2000/svg" xmlns:xlink="http://www.w3.org/1999/xlink" 
	 viewBox="0 0 512 512" xml:space="preserve">
<g>
	<path style="fill:#FFAD61;" d="M380.99,501.801H131.01V333.139c0-69.077,55.829-125.075,124.907-125.075l0,0
		c69.077,0,125.075,55.998,125.075,125.075v168.662H380.99z"/>
	<circle style="fill:#FFAD61;" cx="255.918" cy="89.784" r="79.584"/>
</g>
<g>
	<path style="fill:#4D3D36;" d="M255.917,179.558c49.505,0,89.778-40.275,89.778-89.778S305.422,0,255.917,0
		c-49.504,0-89.778,40.275-89.778,89.778S206.414,179.558,255.917,179.558z M255.917,20.398c38.256,0,69.38,31.124,69.38,69.38
		s-31.124,69.38-69.38,69.38s-69.38-31.124-69.38-69.38S217.661,20.398,255.917,20.398z"/>
	<path style="fill:#4D3D36;" d="M443.2,512c5.633,0,10.199-4.567,10.199-10.199s-4.566-10.199-10.199-10.199h-52.011V333.139
		c0-74.591-60.684-135.274-135.274-135.274c-74.497,0-135.105,60.683-135.105,135.274v158.463H68.8
		c-5.633,0-10.199,4.567-10.199,10.199S63.167,512,68.8,512H443.2z M141.209,491.602V333.139
		c0-63.342,51.457-114.876,114.707-114.876c63.342,0,114.876,51.533,114.876,114.876v158.463H141.209z"/>
	<path style="fill:#4D3D36;" d="M165.227,381.984c-5.633,0-10.199,4.567-10.199,10.199v74.235c0,5.632,4.566,10.199,10.199,10.199
		c5.633,0,10.199-4.567,10.199-10.199v-74.235C175.426,386.551,170.86,381.984,165.227,381.984z"/>
	<path style="fill:#4D3D36;" d="M165.227,344.733c-5.633,0-10.199,4.567-10.199,10.199v3.299c0,5.632,4.566,10.199,10.199,10.199
		c5.633,0,10.199-4.567,10.199-10.199v-3.299C175.426,349.3,170.86,344.733,165.227,344.733z"/>
</g>
</svg>