<?xml version="1.0" encoding="iso-8859-1"?>
<!-- Uploaded to: SVG Repo, www.svgrepo.com, Generator: SVG Repo Mixer Tools -->
<svg height="800px" width="800px" version="1.1" id="Layer_1" xmlns="http://www.w3.org/2000/svg" xmlns:xlink="http://www.w3.org/1999/xlink" 
	 viewBox="0 0 477.164 477.164" xml:space="preserve">
<g transform="translate(0 -1020.36)" shape-rendering="auto" image-rendering="auto" color-rendering="auto" color-interpolation="sRGB">
	<path style="fill:#5A3392;" d="M181.688,1020.43c-0.281-0.015-0.562-0.015-0.843,0c-4.373,0.635-7.404,4.693-6.769,9.066
		c0.036,0.251,0.085,0.499,0.144,0.745l6.563,28.75l-86.281,222.47c-1.658,4.096,0.318,8.76,4.413,10.418
		c1.404,0.568,2.94,0.727,4.43,0.457l125.656-22.25l8.437,37L69.345,1320.43c-4.406,0.334-7.707,4.178-7.372,8.584
		c0.066,0.875,0.277,1.734,0.622,2.541l23.625,57.313c-8.21,1.168-15.984,4.928-22.656,8.469
		c-7.948,4.215-14.063,8.375-14.063,8.375c-3.731,2.395-4.815,7.359-2.421,11.09s7.359,4.814,11.09,2.422
		c0.145-0.094,0.287-0.191,0.425-0.293c0,0,5.449-3.689,12.5-7.438c7.056-3.744,16.064-7.061,19.844-7.063
		c3.755-0.004,8.076,2.51,13.844,6.467c5.769,3.955,12.979,9.344,22.906,9.344c9.926,0,17.138-5.387,22.906-9.344
		c5.769-3.953,10.055-6.467,13.812-6.467c3.755,0,8.044,2.51,13.812,6.467c5.769,3.955,13.012,9.344,22.937,9.344
		c9.926,0,17.138-5.387,22.906-9.344c5.769-3.953,10.18-6.467,13.937-6.467c3.755,0,8.045,2.51,13.812,6.467
		c5.769,3.955,12.98,9.344,22.906,9.344s17.169-5.387,22.938-9.344c5.769-3.953,10.055-6.467,13.812-6.467
		c3.755,0,8.045,2.51,13.812,6.467c5.769,3.955,12.98,9.344,22.906,9.344s17.138-5.387,22.906-9.344
		c5.769-3.953,10.086-6.467,13.844-6.467c3.78-0.004,12.784,3.246,19.844,6.969c7.061,3.725,12.5,7.438,12.5,7.438
		c3.629,2.555,8.642,1.684,11.197-1.945s1.684-8.641-1.945-11.195c-0.052-0.037-0.105-0.074-0.158-0.109c0,0-6.08-4.18-14.031-8.375
		c-7.012-3.695-15.275-7.563-23.937-8.469l40.812-84.844c1.915-3.982,0.239-8.764-3.744-10.678c-1.294-0.623-2.732-0.885-4.163-0.76
		l-41.469,3.313l1.625,17.688l-27.094,2.531l-1.688-18.063l-27.156,2.156l1.531,16.217l-27.125,2.531l-1.531-16.594l-44.844,3.563
		l-8.813-38.531l130.625-23.125c4.352-0.768,7.257-4.918,6.489-9.27c-0.344-1.949-1.398-3.701-2.958-4.918l-174.313-138.5
		l-14.781-64.75c-0.804-3.81-4.234-6.488-8.125-6.344L181.688,1020.43z"/>
	<path style="fill:#FFFFFF;" d="M408.668,1309.52l-40.375,84.314c-2.159,1.328-4.451,2.65-6.281,3.906
		c-5.769,3.955-10.055,6.5-13.813,6.5c-3.755,0-8.045-2.545-13.813-6.5c-5.769-3.955-12.98-9.313-22.906-9.313
		c-9.926,0-17.138,5.359-22.906,9.313c-5.769,3.955-10.086,6.5-13.844,6.5c-3.755,0-8.169-2.545-13.938-6.5
		c-5.769-3.955-12.855-9.313-22.781-9.313s-17.138,5.359-22.906,9.313c-5.769,3.955-10.179,6.5-13.937,6.5
		c-3.755,0-8.045-2.545-13.813-6.5c-5.769-3.955-13.012-9.313-22.938-9.313c-9.926,0-17.139,5.359-22.906,9.313
		c-5.769,3.955-10.055,6.5-13.813,6.5c-3.755,0-8.044-2.545-13.813-6.5c-2.618-1.795-5.66-3.846-9-5.594l-23.375-56.531
		l327.156-26.094V1309.52z"/>
	<path style="fill:#EBFEFF;" d="M372.158,1327.522l-30.75,75.531l-223.734,1.424l-15.75-44.842L372.158,1327.522z"/>
	<path style="fill:#FB9761;" d="M187.168,1087.02l38.249,167.469l-110.937,19.594L187.168,1087.02z"/>
	<path style="fill:#29A3EC;" d="M91.929,1449.461c-13.046,0.006-22.699,5.389-31.094,9.846c-8.394,4.455-14.844,8.906-14.844,8.906
		c-7.318,4.955-9.233,14.904-4.278,22.221c4.955,7.318,14.904,9.234,22.222,4.279c0.061-0.041,0.121-0.084,0.181-0.125
		c0,0,5.109-3.523,11.719-7.031s15.402-6.094,16.094-6.094c0.669,0,3.576,1.168,9.344,5.125s14.394,10.721,27.406,10.721
		c13.01,0,21.669-6.764,27.438-10.721c5.768-3.955,8.639-5.125,9.313-5.125c0.674,0,3.576,1.168,9.344,5.125
		s14.428,10.721,27.438,10.721s21.638-6.764,27.406-10.721c5.768-3.955,8.67-5.125,9.344-5.125c0.674,0,3.544,1.168,9.313,5.125
		c5.768,3.957,14.428,10.721,27.438,10.721s21.669-6.764,27.438-10.721c5.768-3.955,8.639-5.125,9.313-5.125
		c0.674,0,3.576,1.168,9.344,5.125s14.396,10.721,27.406,10.721c13.01,0,21.669-6.764,27.438-10.721
		c5.768-3.955,8.67-5.125,9.344-5.125c0.702,0,9.51,2.574,16.125,6.063s11.719,6.969,11.719,6.969
		c7.165,5.174,17.167,3.559,22.34-3.607c5.173-7.164,3.558-17.166-3.607-22.34c-0.22-0.158-0.443-0.313-0.671-0.459
		c0,0-6.479-4.447-14.875-8.875c-8.389-4.422-18.029-9.748-31.031-9.75h-0.032c-12.989,0.014-21.644,6.766-27.406,10.721
		c-5.768,3.955-8.669,5.125-9.344,5.125c-0.674,0-3.544-1.168-9.313-5.125s-14.427-10.721-27.438-10.721
		s-21.638,6.764-27.406,10.721c-5.768,3.955-8.67,5.125-9.344,5.125c-0.674,0-3.544-1.168-9.313-5.125s-14.428-10.721-27.438-10.721
		c-13.01,0-21.669,6.764-27.438,10.721c-5.768,3.955-8.639,5.125-9.313,5.125c-0.674,0-3.576-1.168-9.344-5.125
		s-14.428-10.721-27.438-10.721s-21.638,6.764-27.406,10.721c-5.768,3.955-8.67,5.125-9.344,5.125c-0.671,0-3.544-1.168-9.313-5.125
		c-5.769-3.959-14.423-10.725-27.438-10.721L91.929,1449.461z"/>
	<path style="fill:#3CDEF6;" d="M90.929,1404.461c-13.046,0.006-22.699,5.389-31.094,9.846c-8.394,4.455-14.844,8.906-14.844,8.906
		c-7.318,4.955-9.233,14.904-4.278,22.221c4.955,7.318,14.904,9.234,22.222,4.279c0.061-0.041,0.121-0.084,0.181-0.125
		c0,0,5.109-3.523,11.719-7.031s15.402-6.094,16.094-6.094c0.669,0,3.576,1.168,9.344,5.125s14.394,10.721,27.406,10.721
		c13.01,0,21.669-6.764,27.438-10.721c5.768-3.955,8.639-5.125,9.313-5.125c0.674,0,3.576,1.168,9.344,5.125
		s14.428,10.721,27.438,10.721s21.638-6.764,27.406-10.721c5.768-3.955,8.67-5.125,9.344-5.125c0.674,0,3.544,1.168,9.313,5.125
		s14.428,10.721,27.438,10.721s21.669-6.764,27.438-10.721c5.768-3.955,8.639-5.125,9.313-5.125c0.674,0,3.576,1.168,9.344,5.125
		s14.396,10.721,27.406,10.721c13.01,0,21.669-6.764,27.438-10.721c5.768-3.955,8.67-5.125,9.344-5.125
		c0.702,0,9.51,2.574,16.125,6.063c6.615,3.488,11.719,6.969,11.719,6.969c7.165,5.174,17.167,3.559,22.34-3.607
		c5.173-7.164,3.558-17.166-3.607-22.34c-0.22-0.158-0.443-0.313-0.671-0.459c0,0-6.479-4.447-14.875-8.875
		c-8.389-4.422-18.029-9.748-31.031-9.75h-0.032c-12.989,0.014-21.644,6.766-27.406,10.721c-5.768,3.955-8.669,5.125-9.344,5.125
		c-0.674,0-3.544-1.168-9.313-5.125s-14.427-10.721-27.438-10.721s-21.638,6.764-27.406,10.721c-5.768,3.955-8.67,5.125-9.344,5.125
		c-0.674,0-3.544-1.168-9.313-5.125s-14.428-10.721-27.438-10.721c-13.01,0-21.669,6.764-27.438,10.721
		c-5.768,3.955-8.639,5.125-9.313,5.125c-0.674,0-3.576-1.168-9.344-5.125s-14.428-10.721-27.438-10.721
		s-21.638,6.764-27.406,10.721c-5.768,3.955-8.67,5.125-9.344,5.125c-0.671,0-3.544-1.168-9.313-5.125
		c-5.769-3.959-14.423-10.725-27.438-10.721L90.929,1404.461z"/>
	<path style="fill:#5A3392;" d="M90.962,1436.483c-9.957,0.004-19.453,4.637-27.402,8.857c-7.948,4.217-14.055,8.504-14.055,8.504
		c-3.809,2.24-5.082,7.143-2.842,10.951c2.24,3.811,7.143,5.082,10.952,2.844c0.345-0.203,0.674-0.432,0.984-0.684
		c0,0,5.467-3.695,12.52-7.441c7.057-3.742,16.062-7.084,19.843-7.086c3.755-0.002,8.051,2.541,13.819,6.496
		c5.769,3.955,12.986,9.332,22.914,9.332c9.926,0,17.145-5.377,22.914-9.332c5.769-3.953,10.061-6.496,13.819-6.496
		c3.755,0,8.051,2.541,13.819,6.496c5.769,3.955,12.987,9.332,22.913,9.332c9.926,0,17.146-5.377,22.914-9.332
		c5.769-3.953,10.179-6.496,13.937-6.496c3.755,0,8.051,2.541,13.819,6.496c5.769,3.955,12.988,9.332,22.914,9.332
		c9.926,0,17.145-5.377,22.914-9.332c5.769-3.953,10.061-6.496,13.819-6.496c3.755,0,8.051,2.541,13.819,6.496
		c5.769,3.955,12.988,9.332,22.914,9.332s17.145-5.377,22.913-9.332c5.769-3.953,10.061-6.496,13.819-6.496
		c3.78-0.002,12.782,3.248,19.842,6.969c7.061,3.725,12.52,7.439,12.52,7.439c3.432,2.783,8.47,2.258,11.254-1.176
		c2.783-3.432,2.257-8.469-1.175-11.252c-0.311-0.252-0.64-0.48-0.984-0.684c0,0-6.103-4.189-14.055-8.385
		c-7.951-4.189-17.461-8.863-27.401-8.857c-9.926,0-17.146,5.377-22.914,9.33c-5.769,3.955-10.061,6.496-13.819,6.496
		c-3.755,0-8.051-2.539-13.819-6.496c-5.769-3.953-12.988-9.33-22.914-9.33s-17.145,5.377-22.913,9.33
		c-5.769,3.955-10.061,6.496-13.819,6.496c-3.755,0-8.169-2.539-13.937-6.496c-5.769-3.953-12.869-9.33-22.795-9.33
		c-9.926,0-17.145,5.377-22.914,9.33c-5.769,3.955-10.179,6.496-13.937,6.496c-3.755,0-8.051-2.539-13.819-6.496
		c-5.769-3.953-12.988-9.33-22.914-9.33c-9.926,0-17.145,5.377-22.913,9.33c-5.769,3.955-10.061,6.496-13.819,6.496
		c-3.755,0-8.05-2.539-13.819-6.496C108.107,1441.86,100.89,1436.479,90.962,1436.483L90.962,1436.483z"/>
	<path style="fill:#FFFFFF;" d="M167.525,1187.42c-3.528-0.012-6.647,2.291-7.677,5.666l-15.945,47.717
		c-1.403,4.207,0.871,8.756,5.078,10.158s8.756-0.871,10.158-5.078l15.827-47.836c1.453-4.174-0.752-8.734-4.925-10.188
		c-0.81-0.281-1.659-0.432-2.516-0.443V1187.42z"/>
	<path style="fill:#EE746C;" d="M210.324,1116.457l144.844,115.096l-113.969,20.123L210.324,1116.457L210.324,1116.457z"/>
	<path style="fill:#5A3392;" d="M90.962,1388.295c-9.957,0.004-19.453,4.639-27.402,8.857c-7.948,4.217-14.055,8.504-14.055,8.504
		c-3.809,2.24-5.082,7.143-2.842,10.951c2.24,3.811,7.143,5.082,10.952,2.844c0.345-0.203,0.674-0.432,0.984-0.684
		c0,0,5.467-3.695,12.52-7.441c7.057-3.742,16.062-7.084,19.843-7.084c3.755-0.004,8.051,2.539,13.819,6.494
		c5.769,3.955,12.986,9.332,22.914,9.332c9.926,0,17.145-5.377,22.914-9.332c5.769-3.953,10.061-6.494,13.819-6.494
		c3.755,0,8.051,2.539,13.819,6.494c5.769,3.955,12.987,9.332,22.913,9.332c9.926,0,17.146-5.377,22.914-9.332
		c5.769-3.953,10.179-6.494,13.937-6.494c3.755,0,8.051,2.539,13.819,6.494c5.769,3.955,12.988,9.332,22.914,9.332
		c9.926,0,17.145-5.377,22.914-9.332c5.769-3.953,10.061-6.494,13.819-6.494c3.755,0,8.051,2.539,13.819,6.494
		c5.769,3.955,12.988,9.332,22.914,9.332s17.145-5.377,22.913-9.332c5.769-3.953,10.061-6.494,13.819-6.494
		c3.78-0.004,12.782,3.246,19.842,6.969c7.061,3.725,12.52,7.439,12.52,7.439c3.432,2.783,8.47,2.258,11.254-1.176
		c2.783-3.432,2.257-8.469-1.175-11.252c-0.311-0.252-0.64-0.48-0.984-0.684c0,0-6.103-4.189-14.055-8.385
		c-7.951-4.189-17.461-8.863-27.401-8.857c-9.926,0-17.146,5.377-22.914,9.33c-5.769,3.955-10.061,6.496-13.819,6.496
		c-3.755,0-8.051-2.539-13.819-6.496c-5.769-3.953-12.988-9.33-22.914-9.33s-17.145,5.377-22.913,9.33
		c-5.769,3.955-10.061,6.496-13.819,6.496c-3.755,0-8.169-2.539-13.937-6.496c-5.769-3.953-12.869-9.33-22.795-9.33
		c-9.926,0-17.145,5.377-22.914,9.33c-5.769,3.955-10.179,6.496-13.937,6.496c-3.755,0-8.051-2.539-13.819-6.496
		c-5.769-3.953-12.988-9.33-22.914-9.33c-9.926,0-17.145,5.377-22.913,9.33c-5.769,3.955-10.061,6.496-13.819,6.496
		c-3.755,0-8.05-2.539-13.819-6.496c-5.769-3.953-12.986-9.334-22.914-9.33L90.962,1388.295z"/>
</g>
</svg>